# xmcd CD database file
#
# Track frame offsets:
#	150
#	17573
#	32401
#	46231
#	64405
#	91676
#	108910
#	123117
#	144510
#	157705
#	176290
#	196587
#	215475
#	235051
#	256396
#	271522
#	290342
#	303172
#
# Disc length: 4388 seconds
#
# Revision: 0
# Processed by: cddbd v1.5.1PL0 Copyright (c) Steve Scherf et al.
# Submitted via: CDex 1.51
#
DISCID=d8112212
DTITLE=Juicy Lucy  - who do you love?
DYEAR=2002
DGENRE=New Age
TTITLE0=missisippi woman
TTITLE1=pretty woman
TTITLE2=who do you love
TTITLE3=whisky in my jar
TTITLE4=built for comfort
TTITLE5=midnight sun
TTITLE6=changed my mind, changend my sing
TTITLE7=walking down the highway
TTITLE8=that woman´s got something
TTITLE9=chicago north western
TTITLE10=thinking of my live
TTITLE11=jessica
TTITLE12=harvest
TTITLE13=just one time
TTITLE14=midnight rider
TTITLE15=future days
TTITLE16=nadine
TTITLE17=she´s mine, she´s yours
EXTD=YEAR: 2002
EXTT0=
EXTT1=
EXTT2=
EXTT3=
EXTT4=
EXTT5=
EXTT6=
EXTT7=
EXTT8=
EXTT9=
EXTT10=
EXTT11=
EXTT12=
EXTT13=
EXTT14=
EXTT15=
EXTT16=
EXTT17=
PLAYORDER=
